<?xml version="1.0" standalone="no"?>
<!DOCTYPE svg PUBLIC "-//W3C//DTD SVG 20010904//EN"
 "http://www.w3.org/TR/2001/REC-SVG-20010904/DTD/svg10.dtd">
<svg version="1.0" xmlns="http://www.w3.org/2000/svg"
 width="500.000000pt" height="500.000000pt" viewBox="0 0 500.000000 500.000000"
 preserveAspectRatio="xMidYMid meet">

<g transform="translate(0.000000,500.000000) scale(0.100000,-0.100000)"
fill="#000000" stroke="none">
<path d="M2270 4569 c-470 -54 -907 -265 -1240 -599 -392 -392 -610 -916 -610
-1470 0 -554 218 -1078 610 -1470 365 -366 854 -583 1365 -607 156 -7 190 1
250 62 133 132 35 345 -159 345 -74 0 -233 18 -321 36 -502 103 -934 440
-1168 909 -122 246 -184 579 -159 853 14 154 31 241 78 392 130 413 450 779
859 983 246 122 579 184 853 159 154 -14 241 -31 392 -78 413 -130 779 -450
983 -859 95 -192 167 -495 167 -709 0 -231 290 -307 389 -103 59 121 -10 576
-131 872 -209 508 -619 922 -1130 1139 -151 64 -391 124 -580 145 -112 13
-338 12 -448 0z"/>
<path d="M2441 3738 c-49 -14 -89 -47 -119 -98 l-27 -45 -3 -507 -3 -506 -298
-299 c-324 -324 -327 -329 -319 -428 5 -63 35 -113 92 -153 34 -23 49 -27 111
-27 62 0 77 4 111 27 58 41 679 668 700 708 18 33 19 67 19 610 l0 575 -27 45
c-31 53 -70 84 -124 99 -46 13 -67 13 -113 -1z"/>
<path d="M3873 2061 c-55 -25 -498 -468 -520 -519 -20 -47 -19 -131 1 -170 21
-41 80 -95 119 -109 77 -28 147 -10 222 58 l55 51 0 -383 c0 -218 4 -399 10
-419 5 -19 24 -52 42 -74 87 -105 244 -99 323 13 l30 43 5 411 5 412 51 -47
c84 -78 157 -96 239 -59 43 19 100 78 116 118 15 40 10 114 -11 158 -12 25
-108 129 -257 277 -196 194 -245 238 -278 247 -58 16 -104 13 -152 -8z"/>
</g>
</svg>
